<?xml version="1.0" encoding="UTF-8"?>
<svg xmlns="http://www.w3.org/2000/svg" version="1.1" viewBox="0 0 99.2 18.9" width="144" height="27.636363636364"><path fill="#0075bf" d="M96.6 13.3h-7.8L94.1 0h-9l-2.3 5.4h2.6l-6.1 13.5h19.9zM81.5 5.4 83.8 0H65.3v5.4h7.4v13.5h6V5.4h2.9ZM59 0H48.5v6.6C47.2 2.5 43.2 0 39.1 0h-7.3v8.9L26.3 0h-5.7v7.7l5.5 11.2h.2V9.8l5.3 9.1h6.1V5.4h.7c1.7 0 2.8.5 3.7 1.5.8.9 1.3 2.4.6 4-.7 1.5-2.3 2.4-3.9 2.4v5.6h.4c1.5 0 3.5-.4 5.3-1.5 1.6-1 3.2-2.6 4.1-5.1v6.6h6.1V9.5l5.3 9.4h11.3V6.7h-5.9v9.2l-4.1-5.8c.5-.2 1.5-.9 2.2-1.9s1.2-3.1.5-4.8S61.1 0 59 0m-4.4 8.7V5.1h1.1c.9 0 2.4.3 2.4 1.8s-1.3 1.9-2.5 1.9h-1ZM24.8 18.9 15.5 0H9.1L0 18.9h16.3l-2.4-5.5H9.5l2.9-6.5 5.4 12h7.1Z"/></svg>
